<?xml version="1.0" encoding="utf-8"?>
<svg id="Layer_1" data-name="Layer 1" xmlns="http://www.w3.org/2000/svg" viewBox="0 0 1678 392.5"><defs><style>.cls-1{opacity:0.2;}.cls-2{fill:#00b7c1;}</style></defs><path d="M927.24,164.49l-49.34-.06a6.41,6.41,0,0,0-6.42,6.41v49.27a6.44,6.44,0,0,0,1.87,4.54l194.59,194.49a6.37,6.37,0,0,0,4.53,1.88l49.34.06a6.4,6.4,0,0,0,6.42-6.41V365.43a6.38,6.38,0,0,0-1.89-4.53L931.76,166.38a6.36,6.36,0,0,0-4.52-1.89" transform="translate(-165.4 -164.42)"/><path class="cls-2" d="M882.42,311.74l98.41,98.4a6.42,6.42,0,0,1-4.53,10.95H877.89a6.41,6.41,0,0,1-6.41-6.41V316.27a6.41,6.41,0,0,1,10.94-4.53" transform="translate(-165.4 -164.42)"/><path class="cls-2" d="M1117.28,273.78l-98.4-98.41a6.41,6.41,0,0,1,4.53-11h98.4a6.42,6.42,0,0,1,6.42,6.42v98.4a6.41,6.41,0,0,1-11,4.54" transform="translate(-165.4 -164.42)"/><path d="M247.09,226.76H171.82a6.41,6.41,0,0,1-6.42-6.41V170.83a6.42,6.42,0,0,1,6.42-6.41H406.33a6.42,6.42,0,0,1,6.41,6.41v49.52a6.41,6.41,0,0,1-6.41,6.41H331.05a6.42,6.42,0,0,0-6.42,6.41v181.5a6.41,6.41,0,0,1-6.41,6.42H259.91a6.41,6.41,0,0,1-6.41-6.42V233.17a6.41,6.41,0,0,0-6.41-6.41" transform="translate(-165.4 -164.42)"/><path d="M592.61,287.63c24.2,0,38.14-11.74,38.14-30.44v-.73c0-20.18-14.67-30.44-38.51-30.44H531a6.41,6.41,0,0,0-6.41,6.42v48.77a6.42,6.42,0,0,0,6.41,6.42ZM453.49,170.83a6.42,6.42,0,0,1,6.42-6.41h136c39.22,0,66.36,10.27,83.59,27.87,15,14.67,22.73,34.47,22.73,59.77v.73c0,36.43-18,61.48-46.14,75.74a6.4,6.4,0,0,0-2.39,9.33l50.09,73.2a6.41,6.41,0,0,1-5.28,10H632a6.42,6.42,0,0,1-5.34-2.86l-47.89-72a6.39,6.39,0,0,0-5.34-2.86H531a6.4,6.4,0,0,0-6.41,6.41v64.91a6.41,6.41,0,0,1-6.42,6.41h-58.3a6.41,6.41,0,0,1-6.42-6.41Z" transform="translate(-165.4 -164.42)"/><path d="M751.23,164.43h58.68a6.41,6.41,0,0,1,6.41,6.41V414.67a6.4,6.4,0,0,1-6.41,6.41H751.23a6.4,6.4,0,0,1-6.41-6.41V170.84a6.4,6.4,0,0,1,6.41-6.41" transform="translate(-165.4 -164.42)"/><path d="M1189.85,164.43h58.68a6.41,6.41,0,0,1,6.41,6.41V414.67a6.4,6.4,0,0,1-6.41,6.41h-58.68a6.4,6.4,0,0,1-6.41-6.41V170.84a6.4,6.4,0,0,1,6.41-6.41" transform="translate(-165.4 -164.42)"/><path d="M1367.66,226.76h-75.27a6.41,6.41,0,0,1-6.42-6.41V170.83a6.42,6.42,0,0,1,6.42-6.41h234.5a6.42,6.42,0,0,1,6.41,6.41v49.52a6.4,6.4,0,0,1-6.41,6.41h-75.27a6.42,6.42,0,0,0-6.42,6.41v181.5a6.41,6.41,0,0,1-6.41,6.42h-58.31a6.42,6.42,0,0,1-6.41-6.42V233.17a6.41,6.41,0,0,0-6.41-6.41" transform="translate(-165.4 -164.42)"/><path d="M1657.63,320.36,1556,174.5a6.4,6.4,0,0,1,5.25-10.07h68.16a6.4,6.4,0,0,1,5.28,2.77l55.1,80.06a6.41,6.41,0,0,0,10.55,0l55.44-80.08a6.42,6.42,0,0,1,5.27-2.76h66.65a6.41,6.41,0,0,1,5.26,10.08L1731.45,319.25a6.38,6.38,0,0,0-1.16,3.69v91.73a6.42,6.42,0,0,1-6.41,6.42H1665.2a6.41,6.41,0,0,1-6.41-6.42V324a6.4,6.4,0,0,0-1.16-3.67" transform="translate(-165.4 -164.42)"/><path d="M278.33,525.77l-3.88-11.27c-.29-.75-.68-1.94-1.17-3.56s-.85-2.82-1-3.57A64.48,64.48,0,0,1,270,515l-3.74,10.79Zm5.91,17.32-4.13-11.5H264.29l-4.05,11.5h-7.13l15.48-41.56H276l15.49,41.56Z" transform="translate(-165.4 -164.42)"/><path d="M371.18,524.29V537.4h7.18q4.25,0,6.41-1.63a6,6,0,0,0,2.17-5.14,5.49,5.49,0,0,0-2.2-4.79c-1.47-1-3.72-1.55-6.72-1.55Zm0-5.48h6.5c2.83,0,4.9-.46,6.2-1.34s2-2.43,2-4.58a4.61,4.61,0,0,0-2.12-4.23c-1.4-.87-3.63-1.29-6.69-1.29h-5.85Zm-6.78-17.1h12.29q8.55,0,12.36,2.48c2.53,1.66,3.81,4.29,3.81,7.87a9.55,9.55,0,0,1-1.87,6,8.32,8.32,0,0,1-5.39,3v.28a10.71,10.71,0,0,1,6.42,3.25,9.79,9.79,0,0,1,2.05,6.55,10.61,10.61,0,0,1-3.89,8.73c-2.59,2.11-6.21,3.16-10.83,3.16h-15Z" transform="translate(-165.4 -164.42)"/><path d="M460.5,501.71v26.78a15.73,15.73,0,0,1-2,8,13.13,13.13,0,0,1-5.69,5.31,20,20,0,0,1-8.9,1.84q-7.69,0-12-4.07t-4.28-11.21V501.71h6.8v26.18q0,5.11,2.37,7.56c1.59,1.62,4,2.43,7.31,2.43q9.56,0,9.56-10V501.71Z" transform="translate(-165.4 -164.42)"/><path d="M502.83,521h4.7c3.15,0,5.44-.58,6.85-1.75A6.36,6.36,0,0,0,516.5,514c0-2.34-.77-4-2.29-5s-3.83-1.52-6.91-1.52h-4.47Zm0,5.61v16.53h-6.76V501.71h11.68c5.35,0,9.29,1,11.86,3s3.86,5,3.86,9.07q0,7.71-8,11l11.68,18.31h-7.69l-9.91-16.53Z" transform="translate(-165.4 -164.42)"/><path d="M566,521h4.7c3.15,0,5.45-.58,6.86-1.75a6.38,6.38,0,0,0,2.11-5.21q0-3.51-2.29-5c-1.52-1-3.83-1.52-6.91-1.52H566Zm0,5.61v16.53H559.2V501.71h11.69q8,0,11.86,3t3.85,9.07q0,7.71-8,11l11.69,18.31h-7.7l-9.91-16.53Z" transform="translate(-165.4 -164.42)"/><rect x="456.41" y="337.28" width="6.77" height="41.38"/><path d="M688.84,531.85a10.45,10.45,0,0,1-4,8.67c-2.66,2.08-6.33,3.14-11,3.14a26.3,26.3,0,0,1-11.49-2.18v-6.4a31.68,31.68,0,0,0,6,2.09,25.48,25.48,0,0,0,5.93.77c2.67,0,4.64-.52,5.93-1.53a5,5,0,0,0,1.91-4.11,5.11,5.11,0,0,0-1.76-3.93c-1.17-1.07-3.58-2.35-7.25-3.83s-6.43-3.27-8-5.22a11.13,11.13,0,0,1-2.32-7.09,9.93,9.93,0,0,1,3.68-8.15c2.46-2,5.74-3,9.88-3a29.1,29.1,0,0,1,11.83,2.6l-2.16,5.53a25.74,25.74,0,0,0-9.84-2.32,7.58,7.58,0,0,0-5,1.42,4.69,4.69,0,0,0-1.7,3.78,5.32,5.32,0,0,0,.67,2.76,6.84,6.84,0,0,0,2.24,2.16,36.84,36.84,0,0,0,5.61,2.7,31.48,31.48,0,0,1,6.68,3.53,10.46,10.46,0,0,1,3.11,3.71,11.2,11.2,0,0,1,1,4.87" transform="translate(-165.4 -164.42)"/><polygon points="595.91 378.67 595.91 337.28 602.67 337.28 602.67 372.86 620.19 372.86 620.19 378.67 595.91 378.67"/><path d="M821.5,522.34q0,7.63,3.1,11.59t9.13,4q6,0,9.1-3.9c2-2.61,3.08-6.48,3.08-11.64s-1-8.92-3-11.55-5.05-3.93-9.07-3.93-7.12,1.31-9.19,3.93-3.1,6.47-3.1,11.55m31.59,0q0,10.11-5.05,15.71t-14.31,5.6c-6.24,0-11-1.84-14.39-5.56s-5-9-5-15.8,1.69-12.09,5.06-15.74,8.17-5.49,14.42-5.49,10.91,1.85,14.26,5.57,5,9,5,15.71" transform="translate(-165.4 -164.42)"/><path d="M903.4,520.64h15.24v20.78a43.59,43.59,0,0,1-7.18,1.73,51,51,0,0,1-7.44.5c-6.26,0-11.09-1.84-14.49-5.56s-5.09-8.93-5.09-15.69,1.91-11.87,5.74-15.64,9.1-5.65,15.83-5.65a30.85,30.85,0,0,1,12.28,2.49l-2.38,5.64a23.85,23.85,0,0,0-10.07-2.33c-4.41,0-7.91,1.39-10.47,4.16s-3.86,6.57-3.86,11.38q0,7.59,3.47,11.54c2.32,2.62,5.64,4,10,4a32.11,32.11,0,0,0,7-.83V526.44H903.4Z" transform="translate(-165.4 -164.42)"/><rect x="787.71" y="337.28" width="6.77" height="41.38"/><path d="M1019.46,531.85a10.44,10.44,0,0,1-4,8.67c-2.66,2.08-6.34,3.14-11,3.14a26.32,26.32,0,0,1-11.5-2.18v-6.4a31.93,31.93,0,0,0,6,2.09,25.48,25.48,0,0,0,5.93.77c2.69,0,4.65-.52,5.93-1.53a5,5,0,0,0,1.91-4.11,5.13,5.13,0,0,0-1.75-3.93q-1.75-1.61-7.25-3.83c-3.77-1.52-6.43-3.27-8-5.22a11.08,11.08,0,0,1-2.33-7.09,9.91,9.91,0,0,1,3.69-8.15q3.68-3,9.88-3a29.14,29.14,0,0,1,11.83,2.6l-2.16,5.53a25.79,25.79,0,0,0-9.85-2.32,7.6,7.6,0,0,0-5,1.42,4.69,4.69,0,0,0-1.7,3.78,5.33,5.33,0,0,0,.68,2.76,6.94,6.94,0,0,0,2.24,2.16,36.6,36.6,0,0,0,5.6,2.7,31.35,31.35,0,0,1,6.69,3.53,10.56,10.56,0,0,1,3.11,3.71,11.2,11.2,0,0,1,1,4.87" transform="translate(-165.4 -164.42)"/><polygon points="902.3 378.67 895.54 378.67 895.54 343.08 883.36 343.08 883.36 337.28 914.48 337.28 914.48 343.08 902.3 343.08 902.3 378.67"/><rect x="945.55" y="337.28" width="6.77" height="41.38"/><path d="M1170.65,506.91a11.15,11.15,0,0,0-9.17,4.13q-3.35,4.15-3.34,11.41,0,7.62,3.21,11.53t9.3,3.9a24.51,24.51,0,0,0,5.1-.52q2.45-.52,5.12-1.35v5.81a31.21,31.21,0,0,1-11,1.84q-9.09,0-14-5.51T1151,522.4a25.41,25.41,0,0,1,2.37-11.3,17,17,0,0,1,6.83-7.42,20.79,20.79,0,0,1,10.5-2.57,26.19,26.19,0,0,1,11.73,2.66l-2.44,5.64a34.47,34.47,0,0,0-4.44-1.75,15.85,15.85,0,0,0-4.9-.75" transform="translate(-165.4 -164.42)"/><path d="M1238.44,531.85a10.44,10.44,0,0,1-4,8.67c-2.66,2.08-6.33,3.14-11,3.14a26.27,26.27,0,0,1-11.49-2.18v-6.4a31.83,31.83,0,0,0,6,2.09,25.55,25.55,0,0,0,5.93.77c2.69,0,4.66-.52,5.93-1.53a5,5,0,0,0,1.92-4.11,5.14,5.14,0,0,0-1.76-3.93c-1.16-1.07-3.58-2.35-7.24-3.83s-6.44-3.27-8-5.22a11.08,11.08,0,0,1-2.33-7.09,9.91,9.91,0,0,1,3.69-8.15q3.66-3,9.87-3a29.1,29.1,0,0,1,11.83,2.6l-2.16,5.53a25.7,25.7,0,0,0-9.84-2.32,7.58,7.58,0,0,0-5,1.42,4.69,4.69,0,0,0-1.7,3.78,5.33,5.33,0,0,0,.68,2.76,6.75,6.75,0,0,0,2.24,2.16,36.86,36.86,0,0,0,5.59,2.7,31.1,31.1,0,0,1,6.69,3.53,10.46,10.46,0,0,1,3.11,3.71,11.06,11.06,0,0,1,1,4.87" transform="translate(-165.4 -164.42)"/><path d="M1326.26,506.91a11.18,11.18,0,0,0-9.18,4.13q-3.33,4.15-3.33,11.41,0,7.62,3.2,11.53t9.31,3.9a24.35,24.35,0,0,0,5.09-.52q2.46-.52,5.12-1.35v5.81a31.17,31.17,0,0,1-11,1.84q-9.09,0-14-5.51t-4.87-15.75a25.41,25.41,0,0,1,2.36-11.3,17,17,0,0,1,6.84-7.42,20.74,20.74,0,0,1,10.5-2.57,26.15,26.15,0,0,1,11.72,2.66l-2.43,5.64a35,35,0,0,0-4.44-1.75,15.85,15.85,0,0,0-4.9-.75" transform="translate(-165.4 -164.42)"/><path d="M1372.74,522.34q0,7.63,3.08,11.59t9.15,4q6,0,9.1-3.9c2-2.61,3.07-6.48,3.07-11.64s-1-8.92-3-11.55-5.06-3.93-9.07-3.93-7.13,1.31-9.2,3.93-3.09,6.47-3.09,11.55m31.59,0q0,10.11-5,15.71t-14.31,5.6c-6.25,0-11-1.84-14.39-5.56s-5-9-5-15.8,1.68-12.09,5.06-15.74,8.17-5.49,14.42-5.49,10.91,1.85,14.26,5.57,5,9,5,15.71" transform="translate(-165.4 -164.42)"/><path d="M1454.59,543.09l-12-34.56h-.23q.48,7.69.48,14.44v20.12h-6.15V501.7h9.55l11.5,32.93h.16l11.83-32.93h9.57v41.39h-6.52V522.63c0-2.06.06-4.74.16-8s.2-5.3.28-6H1473l-12.44,34.5Z" transform="translate(-165.4 -164.42)"/><path d="M1520.37,521.91H1524q5.22,0,7.65-1.81c1.62-1.2,2.43-3.09,2.43-5.65a6.44,6.44,0,0,0-2.17-5.33c-1.46-1.16-3.72-1.76-6.8-1.76h-4.7Zm20.64-7.69c0,4.31-1.42,7.63-4.25,9.93s-6.86,3.45-12.09,3.45h-4.3v15.49h-6.76V501.71h11.91q7.77,0,11.62,3.16c2.58,2.13,3.87,5.23,3.87,9.35" transform="translate(-165.4 -164.42)"/><path d="M1590,525.77l-3.88-11.27c-.29-.75-.68-1.94-1.17-3.56s-.85-2.82-1-3.57a64.48,64.48,0,0,1-2.23,7.61L1578,525.77Zm5.91,17.32-4.13-11.5H1576l-4,11.5h-7.12l15.47-41.56h7.37l15.48,41.56Z" transform="translate(-165.4 -164.42)"/><path d="M1667.39,543.09h-8.3l-20.35-33h-.22l.14,1.85c.26,3.5.39,6.71.39,9.61v21.52h-6.14V501.7h8.21l20.3,32.82h.17c0-.44-.11-2-.23-4.74s-.17-4.86-.17-6.39V501.7h6.2Z" transform="translate(-165.4 -164.42)"/><polygon points="1548.9 356.16 1558.69 337.28 1566.05 337.28 1552.26 362.62 1552.26 378.66 1545.47 378.66 1545.47 362.84 1531.74 337.28 1539.11 337.28 1548.9 356.16"/><path d="M1806.79,520.51h-3.27v-8.79c.82,0,2-.2,3.68-.2,4.3,0,6.34,1.63,6.34,4.5,0,3.07-2.86,4.49-6.75,4.49m9.62,2.46v-.41c4.08-1.22,7.15-4.09,7.15-7.76a7.8,7.8,0,0,0-3.48-7c-2.24-1.64-5.31-2.66-12.27-2.66a66.61,66.61,0,0,0-13.7,1.23v32.92h9.21V526.85h3.27c3.68,0,5.52,1.43,6.14,4.92.81,3.47,1.42,6.33,2.45,7.56H1825c-.62-1.23-1.23-3.27-2.26-8-1-4.5-2.86-7.15-6.33-8.38" transform="translate(-165.4 -164.42)"/><path d="M1808,548.94c-14.72,0-25.77-11.86-25.77-26.58,0-14.93,11-26.59,25.57-26.59h.2c14.73,0,25.56,11.66,25.56,26.59,0,14.72-10.83,26.78-25.56,26.58m.41-61.14h-.21c-19.83,0-35.78,15.33-35.78,34.35,0,19.43,16,34.77,35.78,34.77,19.63,0,35.18-15.34,35.18-34.77,0-19-15.55-34.35-35-34.35" transform="translate(-165.4 -164.42)"/></svg>